<?xml version="1.0" encoding="UTF-8" standalone="no"?>
<!-- Generator: Adobe Illustrator 16.0.3, SVG Export Plug-In . SVG Version: 6.00 Build 0)  -->

<svg
   xmlns:dc="http://purl.org/dc/elements/1.1/"
   xmlns:cc="http://creativecommons.org/ns#"
   xmlns:rdf="http://www.w3.org/1999/02/22-rdf-syntax-ns#"
   xmlns:svg="http://www.w3.org/2000/svg"
   xmlns="http://www.w3.org/2000/svg"
   xmlns:xlink="http://www.w3.org/1999/xlink"
   xmlns:sodipodi="http://sodipodi.sourceforge.net/DTD/sodipodi-0.dtd"
   xmlns:inkscape="http://www.inkscape.org/namespaces/inkscape"
   version="1.1"
   id="Layer_3"
   x="0px"
   y="0px"
   width="2000"
   height="2069.1475"
   viewBox="0 0 2000 2069.1475"
   xml:space="preserve"
   inkscape:version="0.91 r13725"
   sodipodi:docname="female nurse 2.svg"><metadata
     id="metadata19"><rdf:RDF><cc:Work
         rdf:about=""><dc:format>image/svg+xml</dc:format><dc:type
           rdf:resource="http://purl.org/dc/dcmitype/StillImage" /><dc:title /></cc:Work></rdf:RDF></metadata><defs
     id="defs17"><linearGradient
       inkscape:collect="always"
       id="linearGradient6219"><stop
         style="stop-color:#999999;stop-opacity:1"
         offset="0"
         id="stop6221" /><stop
         style="stop-color:#ffffff;stop-opacity:0"
         offset="1"
         id="stop6223" /></linearGradient><linearGradient
       inkscape:collect="always"
       id="linearGradient6114"><stop
         style="stop-color:#ffffff;stop-opacity:1"
         offset="0"
         id="stop6116" /><stop
         id="stop6158"
         offset="0.0395373"
         style="stop-color:#fefefe;stop-opacity:1;" /><stop
         id="stop6156"
         offset="0.93391383"
         style="stop-color:#f2f2f2;stop-opacity:1;" /><stop
         style="stop-color:#999999;stop-opacity:1"
         offset="1"
         id="stop6118" /></linearGradient><pattern
       y="0"
       x="0"
       height="6"
       width="6"
       patternUnits="userSpaceOnUse"
       id="EMFhbasepattern" /><linearGradient
       inkscape:collect="always"
       xlink:href="#linearGradient6114"
       id="linearGradient6120"
       x1="-8.3776217"
       y1="11.885485"
       x2="163.14946"
       y2="44.268116"
       gradientUnits="userSpaceOnUse"
       gradientTransform="matrix(11.151474,0,0,11.292937,139.15777,-1887.0218)" /><linearGradient
       inkscape:collect="always"
       xlink:href="#linearGradient6219"
       id="linearGradient6229"
       x1="-6.2914429"
       y1="45.022202"
       x2="5.1980081"
       y2="41.681252"
       gradientUnits="userSpaceOnUse"
       gradientTransform="matrix(11.151474,0,0,11.292937,139.15777,-1887.0218)" /></defs><sodipodi:namedview
     pagecolor="#ffffff"
     bordercolor="#666666"
     borderopacity="1"
     objecttolerance="10"
     gridtolerance="10"
     guidetolerance="10"
     inkscape:pageopacity="0"
     inkscape:pageshadow="2"
     inkscape:window-width="1536"
     inkscape:window-height="801"
     id="namedview15"
     showgrid="false"
     inkscape:zoom="0.21070354"
     inkscape:cx="1753.5531"
     inkscape:cy="1292.8013"
     inkscape:window-x="-8"
     inkscape:window-y="-8"
     inkscape:window-maximized="1"
     inkscape:current-layer="g6130"
     fit-margin-top="0"
     fit-margin-left="0"
     fit-margin-right="0"
     fit-margin-bottom="0" /><g
     id="g6130"
     transform="translate(3.5762777e-7,1912.9855)"><path
       style="opacity:1;fill:#808000;fill-opacity:1;stroke:#000000;stroke-width:18.20486641;stroke-linecap:round;stroke-linejoin:bevel;stroke-miterlimit:4;stroke-dasharray:none;stroke-dashoffset:0;stroke-opacity:1"
       inkscape:transform-center-x="2.1309704"
       inkscape:transform-center-y="-3.7684602"
       d="M 183.36629,-261.69446 C -10.839161,-522.61567 618.50267,-1475.8268 990.21484,-1483.76 1361.927,-1491.6932 2050.4738,-566.60911 1872.9671,-297.75467 1695.4604,-28.900389 377.57173,-0.77326838 183.36629,-261.69446 Z"
       id="path5461"
       inkscape:connector-curvature="0" /><ellipse
       style="opacity:1;fill:#ffccaa;fill-opacity:1;stroke:#000000;stroke-width:23.84967232;stroke-linecap:round;stroke-linejoin:bevel;stroke-miterlimit:4;stroke-dasharray:none;stroke-dashoffset:0;stroke-opacity:1"
       id="ellipse4364"
       cx="285.07593"
       cy="-996.09869"
       rx="273.15109"
       ry="257.43015" /><ellipse
       ry="257.43015"
       rx="273.15109"
       cy="-993.31958"
       cx="1714.9241"
       id="path4353"
       style="opacity:1;fill:#ffccaa;fill-opacity:1;stroke:#000000;stroke-width:23.84967232;stroke-linecap:round;stroke-linejoin:bevel;stroke-miterlimit:4;stroke-dasharray:none;stroke-dashoffset:0;stroke-opacity:1" /><path
       sodipodi:nodetypes="cczczcc"
       style="fill:#ffccaa;fill-opacity:1;fill-rule:nonzero;stroke:#000000;stroke-width:44.58727646px;stroke-linecap:round;stroke-linejoin:bevel;stroke-miterlimit:4;stroke-dasharray:none;stroke-opacity:1"
       d="m 1007.6279,-1619.0419 c -335.31844,0.7341 -652.5546,64.4918 -819.83699,365.6959 -92.380155,317.65874 -58.19199,525.33111 29.99399,875.18291 88.186,349.85177 818.4874,512.40875 818.4874,512.40875 0,0 577.3695,-107.60813 694.3924,-465.24602 117.023,-357.63793 264.0824,-620.40783 96.808,-922.34564 -167.2847,-301.2041 -484.5222,-364.9632 -819.8448,-365.6959 z"
       id="path4160"
       inkscape:connector-curvature="0" /><path
       style="fill:#000000;fill-opacity:1;fill-rule:nonzero;stroke:none"
       d="m 1370.8311,-267.64967 c 0,100.40248 -171.8058,181.017421 -384.30234,181.017421 -205.71151,0 -374.50227,-76.217721 -383.54474,-172.955701 z"
       id="path4162"
       inkscape:connector-curvature="0" /><path
       style="fill:none;stroke:#000000;stroke-width:8.91745567px;stroke-linecap:butt;stroke-linejoin:miter;stroke-miterlimit:4;stroke-dasharray:none;stroke-opacity:1"
       d="m 1370.8311,-267.64967 c 0,100.40248 -171.8058,181.017421 -384.30234,181.017421 -205.71151,0 -374.50227,-76.217721 -383.54474,-172.955701"
       id="path4164"
       inkscape:connector-curvature="0" /><path
       style="fill:#ff0000;fill-opacity:1;fill-rule:nonzero;stroke:#000000;stroke-width:11.14681911px;stroke-linecap:butt;stroke-linejoin:miter;stroke-miterlimit:4;stroke-dasharray:none;stroke-opacity:1"
       d="m 1051.333,-140.86402 c 45.212,2.93258 82.1349,12.45854 100.2197,36.64304 -28.6342,3.66423 -55.7613,7.328734 -87.4098,8.794297 -6.7818,-21.252837 -28.6342,-31.513237 -57.2686,-43.238797 12.8103,-2.19854 27.8807,-3.6645 44.4587,-2.19854 z m -44.4587,2.19854 c -0.7553,0.73404 -1.5059,0.73404 -1.5059,0.73404 27.8808,11.72556 77.614,41.773234 56.515,43.971777 -61.0362,7.328474 -127.34706,6.595759 -195.16506,-1.464503 -9.79321,-0.73404 -19.58893,-2.198674 -29.38492,-3.664634 9.04234,-33.71151 57.26545,-55.69733 115.28773,-52.0331 19.59184,1.46451 37.67665,6.59576 54.25455,12.45854 z"
       id="path4166"
       inkscape:connector-curvature="0" /><path
       style="fill:none;stroke:#000000;stroke-width:16.30611038px;stroke-linecap:round;stroke-linejoin:bevel;stroke-miterlimit:4;stroke-dasharray:none;stroke-opacity:1"
       d="m 1155.1714,-621.75996 c 0,36.94932 -26.4326,71.72475 -68.4535,90.19909 -42.6988,18.47494 -94.88662,18.47494 -137.58544,0 -42.01835,-18.47434 -68.45095,-53.24977 -68.45095,-90.19909"
       id="path4172"
       inkscape:connector-curvature="0" /><g
       id="g7019"
       transform="matrix(0.99903735,0,0,1.2260998,17.453947,178.04206)"><path
         inkscape:connector-curvature="0"
         id="path4168"
         d="m 1410.2873,-789.53659 c -177.4883,6.94765 -330.0531,-96.10761 -330.0531,-96.10761 0,0 133.6828,-165.5861 311.1715,-172.533 177.4885,-6.3689 351.956,65.42325 351.956,65.42325 0,0 -155.5856,196.26959 -333.0744,203.21736 z"
         style="fill:#ffffff;fill-opacity:1;fill-rule:nonzero;stroke:#000000;stroke-width:10.58030224px;stroke-linecap:butt;stroke-linejoin:miter;stroke-miterlimit:4;stroke-dasharray:none;stroke-opacity:1" /><path
         inkscape:connector-curvature="0"
         id="path4174"
         d="m 589.69697,-792.98309 c 177.56989,8.79879 331.71445,-87.43783 331.71445,-87.43783 0,0 -129.96431,-158.38098 -308.291,-167.17928 -177.56974,-8.249 -353.6292,58.29262 -353.6292,58.29262 0,0 151.87947,188.0754 330.20575,196.32449 z"
         style="fill:#ffffff;fill-opacity:1;fill-rule:nonzero;stroke:#000000;stroke-width:10.31397629px;stroke-linecap:butt;stroke-linejoin:miter;stroke-miterlimit:4;stroke-dasharray:none;stroke-opacity:1" /></g><g
       id="g7023"
       transform="translate(16.489934,-18.984019)"
       style="fill:#0000ff"><path
         inkscape:connector-curvature="0"
         id="path4170"
         d="m 1352.7356,-816.15007 c -62.5433,2.93259 -115.2907,-38.10899 -118.3049,-92.33798 -3.0154,-53.49879 44.4587,-99.66815 107.0019,-102.59985 61.7898,-2.9326 114.5369,38.10808 117.5511,91.60687 3.0154,54.23204 -44.4583,100.39944 -106.2481,103.33096 z"
         style="fill:#0000ff;fill-opacity:1;fill-rule:nonzero;stroke:#000000;stroke-width:10.40369797px;stroke-linecap:butt;stroke-linejoin:miter;stroke-miterlimit:4;stroke-dasharray:none;stroke-opacity:1" /><path
         inkscape:connector-curvature="0"
         id="path4176"
         d="m 649.45759,-816.23355 c 61.7896,3.66423 115.28971,-36.64304 119.0573,-90.13944 4.5211,-54.23177 -42.95048,-101.13411 -104.74034,-104.79841 -62.54312,-3.6641 -115.28958,36.64214 -119.81082,90.14119 -3.76758,53.49919 43.70506,100.39944 105.49386,104.79666 z"
         style="fill:#0000ff;fill-opacity:1;fill-rule:nonzero;stroke:#000000;stroke-width:10.40369797px;stroke-linecap:butt;stroke-linejoin:miter;stroke-miterlimit:4;stroke-dasharray:none;stroke-opacity:1" /></g><path
       sodipodi:nodetypes="scccczaccccs"
       inkscape:connector-curvature="0"
       id="path5330"
       d="m 1001.8934,-1785.557 c -158.98798,1.934 -314.48482,24.4197 -452.21032,65.3922 -281.51227,83.7772 -460.236481,235.9598 -451.712739,1357.28325 l 127.227399,-212.81062 29.92467,-423.9598 c 50.02202,-131.96473 218.54006,-323.13183 399.71926,-355.64253 181.17921,-32.5107 472.25553,85.2545 700.52553,157.0956 144.1646,45.3715 385.159,80.179 419.4968,172.0479 6.6217,32.0092 21.7423,100.50469 33.0708,458.31915 l 141.3469,208.17451 c 9.0503,-1124.44226 -169.2631,-1276.60146 -450.3844,-1360.50746 -150.8816,-44.8864 -322.8285,-67.5098 -497.0039,-65.3922 z"
       style="fill:#ffcc00;fill-opacity:1;stroke:#000000;stroke-width:22.07130623px;stroke-linecap:butt;stroke-linejoin:miter;stroke-opacity:1" /><path
       sodipodi:nodetypes="scccccs"
       inkscape:connector-curvature="0"
       id="path6231"
       d="m 993.4477,-1866.2181 c -486.15525,0 -958.075331,186.7717 -958.081668,397.3038 -1.401061,137.1728 85.379288,288.8715 85.379288,440.793 54.91615,-190.6821 430.65114,-296.9385 874.38035,-297.1147 486.19093,0 916.84443,105.0978 916.81333,315.6452 2.7819,-161.772 56.6989,-469.2198 56.2884,-480.7902 -0.01,-210.5361 -488.6153,-375.8402 -974.7797,-375.8371 z"
       style="opacity:1;fill:#000000;fill-opacity:0.22440945;stroke:none;stroke-width:1.21707094;stroke-linecap:round;stroke-linejoin:bevel;stroke-miterlimit:4;stroke-dasharray:none;stroke-dashoffset:0;stroke-opacity:1" /><g
       id="g7808"><path
         sodipodi:nodetypes="scccccs"
         inkscape:connector-curvature="0"
         id="ellipse5432"
         d="m 995.8207,-1906.1133 c -486.15525,0 -958.075329,193.437 -958.081666,411.4822 -1.401061,142.068 85.379286,299.1803 85.379286,456.5234 54.91615,-197.4869 428.97317,-345.7679 872.70238,-345.9504 486.1909,0 918.5224,147.081 918.4913,365.1422 2.7819,-167.5452 56.6989,-485.9647 56.2884,-497.948 -0.01,-218.0493 -488.6153,-389.2526 -974.7797,-389.2494 z"
         style="opacity:1;fill:url(#linearGradient6120);fill-opacity:1;stroke:#000000;stroke-width:13.65794849;stroke-linecap:round;stroke-linejoin:bevel;stroke-miterlimit:4;stroke-dasharray:none;stroke-dashoffset:0;stroke-opacity:1" /><ellipse
         ry="194.42876"
         rx="191.7968"
         cy="-1658.5491"
         cx="1014.9271"
         id="circle5457"
         style="opacity:1;fill:#ff0000;fill-opacity:1;stroke:#000000;stroke-width:10.17215061;stroke-linecap:round;stroke-linejoin:bevel;stroke-miterlimit:4;stroke-dasharray:none;stroke-dashoffset:0;stroke-opacity:1" /><path
         inkscape:connector-curvature="0"
         id="path5459"
         d="m 1014.927,-1809.1887 a 148.59221,150.63129 0 0 0 -37.33225,4.9487 l 0,107.8375 -106.28992,0 a 148.59221,150.63129 0 0 0 -4.96945,37.8624 148.59221,150.63129 0 0 0 4.8641,37.8446 l 106.39527,0 0,107.7662 a 148.59221,150.63129 0 0 0 37.33225,5.0199 148.59221,150.63129 0 0 0 37.3323,-4.9486 l 0,-107.8375 106.29,0 a 148.59221,150.63129 0 0 0 4.9694,-37.8446 148.59221,150.63129 0 0 0 -4.8641,-37.8624 l -106.3953,0 0,-107.7663 a 148.59221,150.63129 0 0 0 -37.3323,-5.0199 z"
         style="opacity:1;fill:#ffffff;fill-opacity:1;stroke:#000000;stroke-width:11.68412685;stroke-linecap:round;stroke-linejoin:bevel;stroke-miterlimit:4;stroke-dasharray:none;stroke-dashoffset:0;stroke-opacity:1" /></g><path
       sodipodi:nodetypes="cccccc"
       inkscape:connector-curvature="0"
       id="rect6160"
       d="m 121.89741,-1650.7667 c -23.764348,33.0225 -85.079063,89.32 -77.219622,165.7491 -1.315859,133.4284 79.367242,280.8606 80.801912,428.6303 l 1.79015,-1.1036 c 20.78551,-67.3058 77.87963,-117.3117 167.30131,-174.7481 z"
       style="opacity:1;fill:url(#linearGradient6229);fill-opacity:1;stroke:none;stroke-width:1.18073916;stroke-linecap:round;stroke-linejoin:bevel;stroke-miterlimit:4;stroke-dasharray:none;stroke-dashoffset:0;stroke-opacity:1" /><g
       id="g10732"
       transform="translate(14.116886,0)"><path
         sodipodi:nodetypes="ccsc"
         inkscape:connector-curvature="0"
         id="path4925"
         d="m 878.38472,-1089.7713 c -146.31663,-115.0285 -360.45973,-57.9297 -569.3007,-8.4344 0,0 356.90466,-67.6892 568.70219,8.842 11.01077,3.9788 0.59826,-0.4079 0.59826,-0.4079 z"
         style="opacity:1;fill:#ffcc00;fill-opacity:1;stroke:#000000;stroke-width:6.24407721;stroke-linecap:round;stroke-linejoin:bevel;stroke-miterlimit:4;stroke-dasharray:none;stroke-dashoffset:0;stroke-opacity:1" /><path
         style="opacity:1;fill:#ffcc00;fill-opacity:1;stroke:#000000;stroke-width:6.24407721;stroke-linecap:round;stroke-linejoin:bevel;stroke-miterlimit:4;stroke-dasharray:none;stroke-dashoffset:0;stroke-opacity:1"
         d="m 1129.2343,-1089.7713 c 146.3166,-115.0285 360.4598,-57.9297 569.3008,-8.4344 0,0 -356.9048,-67.6892 -568.7023,8.842 -11.0107,3.9788 -0.5987,-0.4079 -0.5987,-0.4079 z"
         id="path6095"
         inkscape:connector-curvature="0"
         sodipodi:nodetypes="ccsc" /></g><path
       inkscape:connector-curvature="0"
       id="rect6097"
       d="m 1343.7679,-257.55026 -704.25888,2.64691 0,18.13914 704.25888,0 0,-20.78605 z"
       style="opacity:1;fill:#ffffff;fill-opacity:1;stroke:none;stroke-width:0.94356489;stroke-linecap:round;stroke-linejoin:bevel;stroke-miterlimit:4;stroke-dasharray:none;stroke-dashoffset:0;stroke-opacity:1" /><rect
       style="opacity:1;fill:#000000;fill-opacity:1;stroke:none;stroke-width:1;stroke-linecap:round;stroke-linejoin:bevel;stroke-miterlimit:4;stroke-dasharray:none;stroke-dashoffset:0;stroke-opacity:1"
       id="rect6235"
       width="2.3516521"
       height="24.563946"
       x="637.18872"
       y="-256.51224" /><rect
       y="-256.51224"
       x="637.18872"
       height="24.563946"
       width="2.3516521"
       id="rect6239"
       style="opacity:1;fill:#000000;fill-opacity:1;stroke:none;stroke-width:1;stroke-linecap:round;stroke-linejoin:bevel;stroke-miterlimit:4;stroke-dasharray:none;stroke-dashoffset:0;stroke-opacity:1" /><rect
       style="opacity:1;fill:#000000;fill-opacity:1;stroke:none;stroke-width:1;stroke-linecap:round;stroke-linejoin:bevel;stroke-miterlimit:4;stroke-dasharray:none;stroke-dashoffset:0;stroke-opacity:1"
       id="rect6241"
       width="2.3516521"
       height="24.563946"
       x="637.18872"
       y="-256.51224" /><rect
       y="-256.51224"
       x="637.18872"
       height="24.563946"
       width="2.3516521"
       id="rect6243"
       style="opacity:1;fill:#000000;fill-opacity:1;stroke:none;stroke-width:1;stroke-linecap:round;stroke-linejoin:bevel;stroke-miterlimit:4;stroke-dasharray:none;stroke-dashoffset:0;stroke-opacity:1" /><rect
       style="opacity:1;fill:#000000;fill-opacity:1;stroke:none;stroke-width:1;stroke-linecap:round;stroke-linejoin:bevel;stroke-miterlimit:4;stroke-dasharray:none;stroke-dashoffset:0;stroke-opacity:1"
       id="rect6245"
       width="2.3516521"
       height="24.563946"
       x="637.18872"
       y="-256.51224" /><rect
       y="-256.51224"
       x="637.18872"
       height="24.563946"
       width="2.3516521"
       id="rect6247"
       style="opacity:1;fill:#000000;fill-opacity:1;stroke:none;stroke-width:1;stroke-linecap:round;stroke-linejoin:bevel;stroke-miterlimit:4;stroke-dasharray:none;stroke-dashoffset:0;stroke-opacity:1" /><rect
       style="opacity:1;fill:#000000;fill-opacity:1;stroke:none;stroke-width:1;stroke-linecap:round;stroke-linejoin:bevel;stroke-miterlimit:4;stroke-dasharray:none;stroke-dashoffset:0;stroke-opacity:1"
       id="rect6249"
       width="2.3516521"
       height="24.563946"
       x="637.18872"
       y="-256.51224" /><rect
       y="-256.51224"
       x="637.18872"
       height="24.563946"
       width="2.3516521"
       id="rect6251"
       style="opacity:1;fill:#000000;fill-opacity:1;stroke:none;stroke-width:1;stroke-linecap:round;stroke-linejoin:bevel;stroke-miterlimit:4;stroke-dasharray:none;stroke-dashoffset:0;stroke-opacity:1" /><rect
       style="opacity:1;fill:#000000;fill-opacity:1;stroke:none;stroke-width:1;stroke-linecap:round;stroke-linejoin:bevel;stroke-miterlimit:4;stroke-dasharray:none;stroke-dashoffset:0;stroke-opacity:1"
       id="rect6253"
       width="2.3516521"
       height="24.563946"
       x="637.18872"
       y="-256.51224" /><rect
       y="-256.51224"
       x="637.18872"
       height="24.563946"
       width="2.3516521"
       id="rect6255"
       style="opacity:1;fill:#000000;fill-opacity:1;stroke:none;stroke-width:1;stroke-linecap:round;stroke-linejoin:bevel;stroke-miterlimit:4;stroke-dasharray:none;stroke-dashoffset:0;stroke-opacity:1" /><rect
       style="opacity:1;fill:#000000;fill-opacity:1;stroke:none;stroke-width:1;stroke-linecap:round;stroke-linejoin:bevel;stroke-miterlimit:4;stroke-dasharray:none;stroke-dashoffset:0;stroke-opacity:1"
       id="rect6257"
       width="2.3516521"
       height="24.563946"
       x="637.18872"
       y="-256.51224" /><rect
       y="-256.51224"
       x="637.18872"
       height="24.563946"
       width="2.3516521"
       id="rect6259"
       style="opacity:1;fill:#000000;fill-opacity:1;stroke:none;stroke-width:1;stroke-linecap:round;stroke-linejoin:bevel;stroke-miterlimit:4;stroke-dasharray:none;stroke-dashoffset:0;stroke-opacity:1" /><rect
       style="opacity:1;fill:#000000;fill-opacity:1;stroke:none;stroke-width:1;stroke-linecap:round;stroke-linejoin:bevel;stroke-miterlimit:4;stroke-dasharray:none;stroke-dashoffset:0;stroke-opacity:1"
       id="rect6261"
       width="2.3516521"
       height="24.563946"
       x="637.18872"
       y="-256.51224" /><rect
       y="-256.51224"
       x="637.18872"
       height="24.563946"
       width="2.3516521"
       id="rect6263"
       style="opacity:1;fill:#000000;fill-opacity:1;stroke:none;stroke-width:1;stroke-linecap:round;stroke-linejoin:bevel;stroke-miterlimit:4;stroke-dasharray:none;stroke-dashoffset:0;stroke-opacity:1" /><rect
       style="opacity:1;fill:#000000;fill-opacity:1;stroke:none;stroke-width:1;stroke-linecap:round;stroke-linejoin:bevel;stroke-miterlimit:4;stroke-dasharray:none;stroke-dashoffset:0;stroke-opacity:1"
       id="rect6265"
       width="2.3516521"
       height="24.563946"
       x="637.18872"
       y="-256.51224" /><rect
       y="-256.51224"
       x="637.18872"
       height="24.563946"
       width="2.3516521"
       id="rect6267"
       style="opacity:1;fill:#000000;fill-opacity:1;stroke:none;stroke-width:1;stroke-linecap:round;stroke-linejoin:bevel;stroke-miterlimit:4;stroke-dasharray:none;stroke-dashoffset:0;stroke-opacity:1" /><rect
       style="opacity:1;fill:#000000;fill-opacity:1;stroke:none;stroke-width:1;stroke-linecap:round;stroke-linejoin:bevel;stroke-miterlimit:4;stroke-dasharray:none;stroke-dashoffset:0;stroke-opacity:1"
       id="rect6269"
       width="2.3516521"
       height="24.563946"
       x="637.18872"
       y="-256.51224" /></g></svg>